<svg id="visual" viewBox="0 0 960 300" width="960" height="300" xmlns="http://www.w3.org/2000/svg" xmlns:xlink="http://www.w3.org/1999/xlink" version="1.1"><rect x="0" y="0" width="960" height="300" fill="#001220"></rect><path d="M0 107L10.7 107.8C21.3 108.7 42.7 110.3 64 109.3C85.3 108.3 106.7 104.7 128 102.8C149.3 101 170.7 101 192 105.3C213.3 109.7 234.7 118.3 256 121C277.3 123.7 298.7 120.3 320 117C341.3 113.7 362.7 110.3 384 107.5C405.3 104.7 426.7 102.3 448 103.5C469.3 104.7 490.7 109.3 512 110.3C533.3 111.3 554.7 108.7 576 110.3C597.3 112 618.7 118 640 119.3C661.3 120.7 682.7 117.3 704 114.3C725.3 111.3 746.7 108.7 768 106.8C789.3 105 810.7 104 832 105.7C853.3 107.3 874.7 111.7 896 114.5C917.3 117.3 938.7 118.7 949.3 119.3L960 120L960 0L949.3 0C938.7 0 917.3 0 896 0C874.7 0 853.3 0 832 0C810.7 0 789.3 0 768 0C746.7 0 725.3 0 704 0C682.7 0 661.3 0 640 0C618.7 0 597.3 0 576 0C554.7 0 533.3 0 512 0C490.7 0 469.3 0 448 0C426.7 0 405.3 0 384 0C362.7 0 341.3 0 320 0C298.7 0 277.3 0 256 0C234.7 0 213.3 0 192 0C170.7 0 149.3 0 128 0C106.7 0 85.3 0 64 0C42.7 0 21.3 0 10.7 0L0 0Z" fill="#fa7268"></path><path d="M0 88L10.7 87.8C21.3 87.7 42.7 87.3 64 88.2C85.3 89 106.7 91 128 90.5C149.3 90 170.7 87 192 85.2C213.3 83.3 234.7 82.7 256 85.3C277.3 88 298.7 94 320 93.5C341.3 93 362.7 86 384 86C405.3 86 426.7 93 448 94.5C469.3 96 490.7 92 512 91.5C533.3 91 554.7 94 576 95.3C597.3 96.7 618.7 96.3 640 96.8C661.3 97.3 682.7 98.7 704 99.8C725.3 101 746.7 102 768 99.5C789.3 97 810.7 91 832 88.7C853.3 86.3 874.7 87.7 896 87C917.3 86.3 938.7 83.7 949.3 82.3L960 81L960 0L949.3 0C938.7 0 917.3 0 896 0C874.7 0 853.3 0 832 0C810.7 0 789.3 0 768 0C746.7 0 725.3 0 704 0C682.7 0 661.3 0 640 0C618.7 0 597.3 0 576 0C554.7 0 533.3 0 512 0C490.7 0 469.3 0 448 0C426.7 0 405.3 0 384 0C362.7 0 341.3 0 320 0C298.7 0 277.3 0 256 0C234.7 0 213.3 0 192 0C170.7 0 149.3 0 128 0C106.7 0 85.3 0 64 0C42.7 0 21.3 0 10.7 0L0 0Z" fill="#ef5f67"></path><path d="M0 67L10.7 66.7C21.3 66.3 42.7 65.7 64 64.8C85.3 64 106.7 63 128 65.3C149.3 67.7 170.7 73.3 192 72.7C213.3 72 234.7 65 256 62.8C277.3 60.7 298.7 63.3 320 63.3C341.3 63.3 362.7 60.7 384 62.2C405.3 63.7 426.7 69.3 448 72.5C469.3 75.7 490.7 76.3 512 76.2C533.3 76 554.7 75 576 74C597.3 73 618.7 72 640 71.3C661.3 70.7 682.7 70.3 704 69.3C725.3 68.3 746.7 66.7 768 65C789.3 63.3 810.7 61.7 832 61.2C853.3 60.7 874.7 61.3 896 62.7C917.3 64 938.7 66 949.3 67L960 68L960 0L949.3 0C938.7 0 917.3 0 896 0C874.7 0 853.3 0 832 0C810.7 0 789.3 0 768 0C746.7 0 725.3 0 704 0C682.7 0 661.3 0 640 0C618.7 0 597.3 0 576 0C554.7 0 533.3 0 512 0C490.7 0 469.3 0 448 0C426.7 0 405.3 0 384 0C362.7 0 341.3 0 320 0C298.7 0 277.3 0 256 0C234.7 0 213.3 0 192 0C170.7 0 149.3 0 128 0C106.7 0 85.3 0 64 0C42.7 0 21.3 0 10.7 0L0 0Z" fill="#e34c67"></path><path d="M0 49L10.7 50.3C21.3 51.7 42.7 54.3 64 53.5C85.3 52.7 106.7 48.3 128 46C149.3 43.7 170.7 43.3 192 42.2C213.3 41 234.7 39 256 39.8C277.3 40.7 298.7 44.3 320 45.7C341.3 47 362.7 46 384 46.7C405.3 47.3 426.7 49.7 448 50C469.3 50.3 490.7 48.7 512 47.3C533.3 46 554.7 45 576 45.2C597.3 45.3 618.7 46.7 640 48.5C661.3 50.3 682.7 52.7 704 52.5C725.3 52.3 746.7 49.7 768 48.8C789.3 48 810.7 49 832 47.8C853.3 46.7 874.7 43.3 896 43.5C917.3 43.7 938.7 47.3 949.3 49.2L960 51L960 0L949.3 0C938.7 0 917.3 0 896 0C874.7 0 853.3 0 832 0C810.7 0 789.3 0 768 0C746.7 0 725.3 0 704 0C682.7 0 661.3 0 640 0C618.7 0 597.3 0 576 0C554.7 0 533.3 0 512 0C490.7 0 469.3 0 448 0C426.7 0 405.3 0 384 0C362.7 0 341.3 0 320 0C298.7 0 277.3 0 256 0C234.7 0 213.3 0 192 0C170.7 0 149.3 0 128 0C106.7 0 85.3 0 64 0C42.7 0 21.3 0 10.7 0L0 0Z" fill="#d53867"></path><path d="M0 31L10.7 30.5C21.3 30 42.7 29 64 26.3C85.3 23.7 106.7 19.3 128 18.3C149.3 17.3 170.7 19.7 192 21.7C213.3 23.7 234.7 25.3 256 25.2C277.3 25 298.7 23 320 23.8C341.3 24.7 362.7 28.3 384 27.3C405.3 26.3 426.7 20.7 448 20.2C469.3 19.7 490.7 24.3 512 24.5C533.3 24.7 554.7 20.3 576 18.2C597.3 16 618.7 16 640 18.5C661.3 21 682.7 26 704 26.8C725.3 27.7 746.7 24.3 768 21.8C789.3 19.3 810.7 17.7 832 17.5C853.3 17.3 874.7 18.7 896 20.2C917.3 21.7 938.7 23.3 949.3 24.2L960 25L960 0L949.3 0C938.7 0 917.3 0 896 0C874.7 0 853.3 0 832 0C810.7 0 789.3 0 768 0C746.7 0 725.3 0 704 0C682.7 0 661.3 0 640 0C618.7 0 597.3 0 576 0C554.7 0 533.3 0 512 0C490.7 0 469.3 0 448 0C426.7 0 405.3 0 384 0C362.7 0 341.3 0 320 0C298.7 0 277.3 0 256 0C234.7 0 213.3 0 192 0C170.7 0 149.3 0 128 0C106.7 0 85.3 0 64 0C42.7 0 21.3 0 10.7 0L0 0Z" fill="#c62368"></path></svg>